<?xml version="1.0" standalone="no"?>
<!DOCTYPE svg PUBLIC "-//W3C//DTD SVG 20010904//EN"
 "http://www.w3.org/TR/2001/REC-SVG-20010904/DTD/svg10.dtd">
<svg version="1.0" xmlns="http://www.w3.org/2000/svg"
 width="460.000000pt" height="460.000000pt" viewBox="0 0 460.000000 460.000000"
 preserveAspectRatio="xMidYMid meet">
<metadata>
Created by potrace 1.11, written by Peter Selinger 2001-2013
</metadata>
<g transform="translate(0.000000,460.000000) scale(0.100000,-0.100000)"
fill="#000000" stroke="none">
<path d="M14 4585 c-17 -13 -17 -14 -2 -15 9 0 20 5 23 10 4 6 10 8 15 5 5 -3
11 -1 15 5 9 15 -29 12 -51 -5z"/>
<path d="M3420 4596 c0 -9 30 -14 35 -6 4 6 -3 10 -14 10 -12 0 -21 -2 -21 -4z"/>
<path d="M4542 4584 c35 -19 38 -31 47 -210 l8 -149 1 188 2 187 -42 0 -43 -1
27 -15z"/>
<path d="M2669 4421 c-13 -11 -21 -23 -16 -27 4 -4 15 3 24 15 13 19 22 22 54
18 22 -3 37 -1 33 4 -10 16 -71 10 -95 -10z"/>
<path d="M4290 4283 c0 -4 5 -15 10 -23 8 -13 10 -13 10 2 0 9 -4 20 -10 23
-5 3 -10 3 -10 -2z"/>
<path d="M4337 4175 c6 -91 11 -105 12 -30 0 33 -4 69 -8 80 -5 12 -7 -9 -4
-50z"/>
<path d="M2035 4135 c-44 -8 -108 -17 -143 -21 -40 -4 -58 -10 -50 -15 10 -7
9 -9 -4 -9 -10 0 -18 -4 -18 -9 0 -14 -89 -41 -135 -41 -67 0 -105 -18 -121
-57 -8 -19 -30 -43 -50 -55 -19 -11 -42 -34 -51 -52 -9 -17 -42 -66 -75 -109
-45 -60 -65 -98 -89 -169 -16 -51 -37 -100 -45 -109 -21 -23 -29 -134 -15
-214 7 -37 16 -136 22 -219 11 -182 22 -247 47 -289 11 -18 27 -54 37 -82 10
-27 26 -59 36 -70 9 -11 26 -38 37 -60 40 -80 139 -148 217 -149 l50 -1 3 -50
c7 -102 -2 -125 -74 -183 -36 -29 -75 -69 -86 -88 -13 -22 -40 -45 -71 -60
-46 -24 -60 -26 -179 -26 -85 1 -134 5 -144 13 -10 8 -14 8 -14 0 0 -6 -5 -11
-11 -11 -5 0 -8 4 -5 9 3 5 -10 11 -29 13 -19 2 -35 0 -35 -5 0 -4 -5 -5 -10
-2 -6 4 -8 10 -6 14 3 4 -36 6 -87 5 -50 -2 -85 1 -78 5 22 14 -34 17 -274 14
-327 -4 -388 -4 -494 3 l-94 6 8 -108 c4 -60 7 -122 7 -139 -1 -16 -1 -68 -1
-115 1 -47 1 -114 0 -150 -1 -36 -4 -399 -7 -808 l-5 -742 2301 0 2300 0 0
1515 c0 1493 0 1515 -19 1515 -29 0 -35 -19 -14 -42 10 -12 14 -22 7 -25 -6
-2 -9 -37 -8 -91 2 -48 0 -79 -2 -69 -3 9 -9 17 -14 17 -5 0 -11 13 -15 29 -8
38 -18 45 -84 65 -58 17 -130 55 -150 80 -11 13 -10 17 3 22 9 3 16 13 16 22
0 12 -5 11 -23 -6 -26 -25 -47 -28 -65 -10 -9 9 -12 8 -12 -6 0 -19 60 -79
100 -100 14 -7 62 -26 107 -41 51 -17 84 -34 87 -44 2 -9 7 -28 10 -42 l6 -26
-150 2 -149 3 0 -36 c1 -79 7 -92 45 -92 19 0 34 4 34 9 0 5 9 7 20 4 11 -3
20 -10 20 -15 0 -6 -7 -8 -15 -4 -8 3 -15 1 -15 -4 0 -6 5 -10 11 -10 5 0 7
-4 4 -10 -3 -5 -1 -10 4 -10 6 0 11 6 11 13 1 6 10 1 21 -13 23 -28 35 -31 63
-17 15 7 16 11 5 18 -10 6 -5 9 16 9 23 0 27 -3 15 -10 -10 -6 -11 -10 -2 -10
16 0 16 -27 -1 -33 -8 -3 -20 -1 -27 3 -19 12 -51 -7 -44 -25 5 -11 -1 -15
-19 -15 -14 0 -29 -5 -32 -11 -4 -6 -14 -8 -22 -5 -8 3 -12 2 -9 -2 3 -5 -32
-17 -77 -26 -45 -10 -95 -25 -110 -33 -37 -19 -67 -24 -67 -12 0 5 -8 1 -18
-8 -11 -10 -17 -21 -15 -25 2 -5 -2 -8 -10 -8 -8 0 -20 -7 -27 -15 -9 -11 -26
-14 -56 -11 -25 2 -41 0 -38 -5 3 -5 2 -10 -3 -10 -17 -3 -64 -9 -86 -11 -13
-2 -42 -15 -65 -31 -36 -23 -42 -32 -42 -62 0 -21 5 -35 13 -35 8 0 8 -3 -2
-9 -11 -7 -17 -45 -23 -143 -8 -140 -40 -309 -62 -327 -10 -8 -10 2 1 52 7 34
18 145 23 246 9 156 8 192 -5 236 -8 29 -22 58 -30 65 -14 12 -21 40 -10 40 3
0 22 -7 42 -15 32 -14 39 -14 60 0 12 9 23 20 23 25 0 6 13 10 29 10 35 0 60
24 35 34 -44 17 -179 -4 -201 -31 -8 -10 -21 -13 -42 -8 -20 4 -31 3 -31 -4 0
-6 5 -11 10 -11 6 0 27 -17 48 -38 41 -43 72 -120 71 -178 l0 -39 -19 40 c-11
22 -24 60 -30 84 -6 24 -21 53 -34 65 -12 11 -30 33 -39 49 -12 18 -32 31 -62
39 -24 7 -47 18 -50 26 -4 10 0 13 15 9 11 -3 20 -1 20 4 0 5 -16 9 -35 9 -33
0 -72 14 -180 66 -53 25 -105 32 -105 13 0 -6 11 -8 28 -4 18 4 33 1 40 -7 12
-15 -23 -19 -95 -11 -51 5 -73 24 -72 61 l0 27 10 -25 c12 -29 26 -40 57 -40
21 0 32 19 12 21 -5 1 -16 2 -22 3 -13 1 -17 58 -8 116 6 47 0 181 -8 176 -5
-3 -15 19 -22 49 -15 63 -10 73 50 100 80 36 62 106 -49 195 -40 32 -88 61
-105 64 -38 7 -60 45 -71 121 -5 31 -10 42 -16 34 -6 -10 -12 -4 -23 22 -16
37 -34 58 -51 56 -15 -1 -55 62 -54 87 0 11 -2 52 -5 90 -6 73 5 109 29 100
18 -7 20 -45 3 -62 -7 -7 -8 -12 -4 -12 5 0 3 -7 -4 -15 -7 -9 -10 -18 -7 -22
11 -10 37 18 38 41 1 20 2 20 6 1 3 -11 9 -24 14 -29 5 -6 9 -39 10 -75 1 -62
1 -64 11 -31 5 19 7 53 4 75 -13 80 -12 143 2 138 8 -4 12 -28 12 -72 0 -46 3
-62 10 -51 11 17 13 279 2 296 -4 7 -36 15 -72 19 -36 4 -72 11 -81 16 -8 4
-28 10 -43 12 -15 2 -31 9 -35 15 -4 7 -40 21 -80 32 -69 20 -151 63 -151 81
0 5 18 6 40 3 25 -4 40 -3 40 4 0 26 -311 38 -435 17z m530 -566 c17 -12 21
-17 10 -13 -11 5 -48 9 -83 9 -52 0 -60 2 -45 13 26 19 84 14 118 -9z m-251
-113 c-3 -14 -10 -26 -15 -26 -4 0 -3 14 3 31 12 36 22 33 12 -5z m-13 -63
c-12 -20 -14 -14 -5 12 4 9 9 14 11 11 3 -2 0 -13 -6 -23z m-34 -45 c-3 -8 -6
-5 -6 6 -1 11 2 17 5 13 3 -3 4 -12 1 -19z m-182 -76 c-10 -56 -18 -28 -9 35
6 43 9 50 12 29 2 -16 1 -45 -3 -64z m2169 -587 c-4 -8 -8 -15 -10 -15 -2 0
-4 7 -4 15 0 8 4 15 10 15 5 0 7 -7 4 -15z m296 -145 c0 -5 -4 -10 -9 -10 -6
0 -13 5 -16 10 -3 6 1 10 9 10 9 0 16 -4 16 -10z m16 -37 c-4 -16 -3 -41 2
-58 13 -46 -4 -110 -32 -123 -17 -7 -27 -7 -35 1 -8 8 -11 5 -11 -14 0 -14 9
-30 20 -37 23 -14 40 -8 40 14 0 8 5 12 10 9 30 -18 -1 -44 -72 -59 -32 -7
-37 -22 -10 -29 13 -4 11 -5 -5 -6 -18 -1 -23 -7 -23 -27 0 -21 -3 -24 -14
-15 -11 9 -23 3 -57 -28 l-44 -40 58 6 c39 4 57 2 57 -6 0 -13 5 -13 -140 -15
-103 -2 -160 -9 -180 -21 -4 -3 -97 -5 -206 -7 -109 -1 -185 -5 -169 -9 l30
-7 -33 -1 -34 -1 7 53 c4 28 11 57 15 62 13 18 22 67 10 60 -21 -13 -9 27 14
48 29 27 186 100 186 87 0 -5 -9 -14 -20 -20 -11 -6 -19 -14 -18 -18 1 -4 -6
-19 -16 -34 -35 -53 9 -66 58 -18 75 74 131 114 146 105 5 -3 53 14 105 39 53
25 101 46 107 46 8 0 100 45 118 58 2 2 -2 7 -10 12 -19 12 -13 12 28 1 20 -6
32 -6 32 0 0 5 10 1 22 -11 26 -24 58 -29 38 -5 -10 12 -10 15 4 15 9 0 16 5
16 10 0 6 3 10 6 10 3 0 3 -12 0 -27z m-1479 -272 c-56 -90 -63 -134 -38 -233
15 -59 19 -98 15 -134 -6 -46 -4 -52 15 -57 12 -3 21 -13 21 -25 0 -11 7 -22
15 -26 8 -3 15 -18 15 -33 0 -21 -3 -24 -12 -15 -15 15 -48 16 -48 1 0 -7 7
-17 16 -23 9 -7 12 -18 8 -29 -5 -13 -10 -15 -20 -7 -7 7 -10 18 -7 26 3 8 -1
14 -11 14 -9 0 -17 7 -17 15 -1 8 -2 21 -3 28 -1 6 6 11 15 9 25 -4 29 21 9
48 l-18 24 -15 -49 c-10 -31 -16 -41 -16 -26 -1 16 -5 21 -16 17 -11 -4 -15 2
-16 22 -1 19 -4 12 -11 -20 -6 -27 -13 -48 -17 -48 -11 0 -11 39 0 46 7 4 6
10 0 18 -11 13 -4 56 9 56 5 0 11 18 15 39 3 22 13 47 20 58 15 18 20 63 9 63
-4 0 -12 -7 -19 -17 -7 -9 -21 -17 -31 -18 -10 -1 -29 -7 -42 -14 -20 -11 -21
-15 -10 -28 11 -14 10 -16 -9 -11 -25 7 -43 -10 -24 -22 24 -14 -16 -32 -60
-26 -36 5 -40 4 -29 -9 7 -8 23 -15 36 -15 19 0 23 -5 22 -30 -1 -31 -28 -44
-28 -14 0 10 -6 14 -15 10 -8 -3 -15 0 -15 6 0 6 -3 8 -7 5 -7 -8 -33 11 -33
24 0 5 8 6 18 3 10 -3 7 2 -8 13 -14 10 -35 29 -47 42 -21 22 -23 22 -24 5 -1
-17 -2 -17 -6 -1 -5 21 -23 23 -23 2 0 -8 19 -34 43 -56 27 -28 33 -37 17 -28
-14 8 -27 16 -30 19 -47 46 -60 53 -77 39 -15 -12 -16 -12 -9 5 4 11 14 43 22
70 28 94 78 189 124 235 36 37 62 52 128 74 90 31 127 30 158 -5 19 -21 19
-21 -4 -9 -35 18 -64 5 -60 -27 2 -16 10 -28 20 -30 24 -5 75 36 86 68 12 34
45 67 50 51 2 -7 -12 -38 -31 -70z m868 69 c3 -5 -1 -10 -10 -10 -9 0 -13 5
-10 10 3 6 8 10 10 10 2 0 7 -4 10 -10z m-510 -10 c3 -5 2 -10 -4 -10 -5 0
-13 5 -16 10 -3 6 -2 10 4 10 5 0 13 -4 16 -10z m89 -104 c8 -34 -12 -89 -31
-82 -8 3 -20 6 -27 6 -7 0 -21 7 -32 16 -18 14 -17 15 18 9 26 -4 41 -1 52 10
19 19 19 21 6 46 -6 11 -7 19 -1 19 5 0 12 -11 15 -24z m896 -55 c0 -5 -7 -12
-16 -15 -14 -5 -15 -4 -4 9 14 17 20 19 20 6z m110 -66 c0 -17 -5 -25 -17 -24
-11 0 -13 3 -5 6 6 2 12 13 12 24 0 10 2 19 5 19 3 0 5 -11 5 -25z m-1240 -25
c79 0 70 -21 -13 -28 -49 -4 -56 -2 -75 23 -29 37 -28 54 1 27 19 -18 35 -22
87 -22z m192 18 c-16 -16 -72 -19 -72 -4 0 7 17 12 42 13 31 2 38 -1 30 -9z
m908 -39 c0 -24 -23 -21 -28 4 -2 10 3 17 12 17 10 0 16 -9 16 -21z m70 -69
c0 -5 -7 -10 -15 -10 -8 0 -15 5 -15 10 0 6 7 10 15 10 8 0 15 -4 15 -10z
m-1533 -22 c-3 -8 -6 -5 -6 6 -1 11 2 17 5 13 3 -3 4 -12 1 -19z m-673 -110
c20 -28 20 -49 1 -74 -14 -17 -14 -15 -8 25 5 36 3 46 -12 58 -11 7 -14 13 -7
13 6 0 18 -10 26 -22z m196 3 c0 -16 -28 -31 -44 -25 -11 4 -13 10 -7 18 11
14 51 19 51 7z m710 -10 c0 -25 -16 -36 -24 -16 -3 8 -1 15 5 15 6 0 7 5 4 10
-3 6 -1 10 4 10 6 0 11 -9 11 -19z m-973 -38 c-3 -10 -5 -4 -5 12 0 17 2 24 5
18 2 -7 2 -21 0 -30z m1793 27 c0 -5 -5 -10 -11 -10 -5 0 -7 5 -4 10 3 6 8 10
11 10 2 0 4 -4 4 -10z m-3202 -26 c20 -6 33 -26 15 -23 -23 4 -43 -2 -38 -11
3 -5 2 -10 -4 -10 -5 0 -11 6 -14 13 -3 8 -10 6 -21 -8 -12 -14 -14 -15 -10
-4 3 10 0 20 -7 25 -25 15 36 29 79 18z m97 -24 c4 -6 -5 -10 -19 -10 -14 0
-26 5 -26 10 0 6 9 10 19 10 11 0 23 -4 26 -10z m35 0 c0 -5 -4 -10 -10 -10
-5 0 -10 5 -10 10 0 6 5 10 10 10 6 0 10 -4 10 -10z m-156 -45 c3 -8 1 -15 -4
-15 -6 0 -10 7 -10 15 0 8 2 15 4 15 2 0 6 -7 10 -15z m1456 0 c0 -8 -2 -15
-4 -15 -2 0 -6 7 -10 15 -3 8 -1 15 4 15 6 0 10 -7 10 -15z m1800 1 c0 -8 -7
-16 -15 -20 -12 -4 -13 -2 -2 14 14 24 17 25 17 6z m-3140 -26 c0 -5 -6 -10
-14 -10 -8 0 -18 5 -21 10 -3 6 3 10 14 10 12 0 21 -4 21 -10z m110 -20 c-8
-5 -18 -6 -24 -3 -5 4 -1 10 10 13 24 9 34 2 14 -10z m2138 -10 c1 -46 12 -70
31 -70 10 0 18 -7 18 -15 0 -10 -6 -14 -14 -10 -8 3 -19 5 -24 5 -11 0 -36 51
-33 68 1 6 2 21 3 32 2 32 18 23 19 -10z m916 -149 c19 -7 19 -8 -3 -14 -13
-3 -20 -10 -16 -16 3 -6 -1 -11 -9 -11 -17 0 -39 34 -29 44 8 8 33 7 57 -3z
m-1136 -337 c12 -2 22 -8 22 -13 0 -15 -37 -19 -87 -10 -26 5 -86 10 -132 10
-92 1 -97 12 -11 26 48 7 130 2 208 -13z m-1748 -53 c0 -10 -6 -24 -14 -31
-21 -17 -86 -145 -86 -169 0 -12 -5 -21 -11 -21 -6 0 -9 -6 -6 -14 3 -7 -3
-20 -14 -29 -18 -16 -19 -15 -19 19 0 24 15 63 46 117 78 139 104 171 104 128z
m-993 -573 c-3 -8 -6 -5 -6 6 -1 11 2 17 5 13 3 -3 4 -12 1 -19z m-27 -8 c0
-5 -5 -10 -11 -10 -5 0 -7 5 -4 10 3 6 8 10 11 10 2 0 4 -4 4 -10z m45 -154
c-8 -155 -8 -156 -31 -156 -13 0 -24 5 -24 10 0 6 8 10 17 10 12 0 14 3 6 11
-8 8 -8 21 -2 43 11 34 14 167 5 204 -2 12 -1 22 3 22 4 0 8 -16 9 -36 2 -58
12 -53 12 6 0 29 3 51 6 47 3 -3 3 -76 -1 -161z m4195 17 c0 -19 -3 -24 -10
-17 -6 6 -8 18 -4 27 9 24 14 21 14 -10z m78 -80 l-1 -68 -6 55 c-6 52 -4 80
5 80 2 0 3 -30 2 -67z m-1895 50 c115 -5 127 -8 113 -21 -17 -17 -108 -18
-114 -1 -2 5 -38 10 -80 10 -42 1 -111 5 -152 9 l-75 7 90 1 c50 1 148 -1 218
-5z m1651 -17 c-10 -8 -21 -12 -24 -10 -5 6 21 24 34 24 6 0 1 -6 -10 -14z
m204 -32 c-4 -3 -12 5 -18 18 -12 22 -12 22 6 6 10 -10 15 -20 12 -24z m-1003
6 c-3 -5 -12 -10 -18 -10 -7 0 -6 4 3 10 19 12 23 12 15 0z m-1105 -10 c0 -6
-71 -9 -197 -8 l-198 2 185 6 c102 3 191 7 198 8 6 1 12 -2 12 -8z m527 4 c-3
-3 -12 -4 -19 -1 -8 3 -5 6 6 6 11 1 17 -2 13 -5z m106 -1 c-7 -2 -19 -2 -25
0 -7 3 -2 5 12 5 14 0 19 -2 13 -5z m60 0 c-7 -2 -21 -2 -30 0 -10 3 -4 5 12
5 17 0 24 -2 18 -5z m1202 -3 c4 -6 -22 -9 -72 -8 -69 1 -73 2 -33 8 70 11 98
11 105 0z m-1727 -7 c-21 -2 -57 -2 -80 0 -24 2 -7 4 37 4 44 0 63 -2 43 -4z
m-2381 -60 c-3 -10 -5 -2 -5 17 0 19 2 27 5 18 2 -10 2 -26 0 -35z m4330 -18
c-3 -7 -32 -21 -64 -30 -32 -10 -62 -22 -67 -27 -6 -4 -20 -8 -32 -8 -13 0
-26 -4 -29 -10 -3 -5 -16 -10 -29 -10 -12 0 -27 -5 -33 -11 -6 -6 -39 -12 -75
-13 -35 -1 -69 -5 -75 -9 -12 -7 -128 46 -168 77 -30 23 1 21 58 -4 l46 -20
36 25 c35 23 39 23 66 10 44 -23 172 -21 247 3 69 23 111 49 113 72 1 8 4 5 6
-8 3 -13 2 -29 0 -37z m-2871 -24 c-9 -10 -25 -17 -34 -14 -10 2 -26 -5 -36
-16 -11 -12 -25 -21 -33 -21 -7 0 -13 -4 -13 -10 0 -5 -9 -10 -19 -10 -11 0
-23 -5 -26 -10 -5 -8 -11 -7 -21 1 -11 9 -14 9 -14 -1 0 -9 -10 -10 -37 -5
-21 4 -105 10 -187 14 -130 6 -150 9 -162 26 -8 10 -14 25 -14 33 0 15 24 14
135 -7 28 -6 72 -10 98 -10 29 -1 46 -5 42 -11 -4 -6 18 -10 59 -10 35 0 66 4
68 8 2 4 48 19 103 34 55 14 102 26 104 27 2 0 -4 -8 -13 -18z m-876 -13 c119
-17 200 -21 200 -10 0 6 -8 13 -17 15 -10 3 -2 5 18 6 32 1 38 -3 43 -25 12
-47 -6 -55 -118 -49 -149 7 -283 24 -314 41 -15 7 -33 14 -40 14 -18 0 -124
-50 -140 -67 -18 -18 -27 -16 -12 2 7 8 10 24 7 35 -4 16 0 20 19 20 13 0 41
9 62 20 33 18 48 20 132 14 52 -3 124 -10 160 -16z m2568 -3 c3 -3 -2 -5 -10
-5 -9 0 -30 -3 -47 -6 -24 -5 -31 -3 -31 9 0 8 6 17 13 20 12 4 66 -8 75 -18z
m-1608 7 c0 -5 16 -16 35 -25 25 -12 34 -22 32 -37 -5 -30 -17 -37 -17 -9 0
18 -10 28 -40 42 -39 18 -39 18 -70 -4 -16 -13 -30 -27 -30 -31 0 -5 -4 -6
-10 -3 -20 12 -9 34 28 53 40 21 72 27 72 14z m99 -8 c27 -16 58 -54 44 -54
-11 1 -90 70 -80 70 5 0 21 -7 36 -16z m186 6 c-3 -5 -12 -10 -18 -10 -7 0 -6
4 3 10 19 12 23 12 15 0z m1095 1 c44 -7 43 -7 -32 -14 -43 -4 -113 -3 -155 0
-74 7 -76 8 -33 14 64 9 167 9 220 0z m340 -6 c31 -11 52 -12 83 -5 59 13 232
-7 274 -31 17 -11 34 -26 37 -34 3 -8 4 -15 3 -15 -1 0 -36 6 -77 14 -89 17
-179 19 -436 10 -131 -4 -197 -3 -210 5 -15 8 -6 11 46 11 36 1 74 5 85 9 11
5 25 4 32 -1 17 -13 96 -6 101 10 2 8 -6 16 -19 19 -22 6 -22 7 -3 14 28 11
37 11 84 -6z m468 -11 c29 -14 57 -35 63 -45 5 -10 8 -19 7 -19 -18 1 -108 34
-133 50 -18 11 -40 20 -49 20 -10 0 -14 5 -11 10 11 18 70 10 123 -16z m614
-16 c-6 -6 -7 0 -4 19 5 21 7 23 10 9 2 -10 0 -22 -6 -28z m-4365 0 c-3 -8 -6
-5 -6 6 -1 11 2 17 5 13 3 -3 4 -12 1 -19z m1899 -8 c1 -24 -4 -30 -28 -36
-17 -3 -35 -1 -41 5 -16 16 0 26 17 12 8 -7 20 -10 26 -6 8 5 5 11 -6 20 -16
11 -16 13 2 23 27 16 29 15 30 -18z m90 16 c18 -19 18 -26 -1 -26 -8 0 -15 2
-15 4 0 2 -3 11 -6 20 -8 20 3 21 22 2z m144 3 c0 -6 7 -8 17 -5 9 4 30 2 47
-3 17 -5 129 -12 249 -15 137 -4 226 -10 239 -17 l22 -12 -24 -9 c-14 -5 -38
-7 -55 -4 -16 3 -100 6 -185 6 -85 1 -195 8 -244 16 -49 8 -95 13 -102 10 -17
-7 -18 10 -1 29 14 17 37 19 37 4z m-372 -19 c28 -13 43 -30 26 -30 -10 0 -74
41 -74 47 0 2 3 3 8 1 4 -3 22 -11 40 -18z m1105 3 c-13 -2 -33 -2 -45 0 -13
2 -3 4 22 4 25 0 35 -2 23 -4z m-1456 -40 c-9 -9 -20 -14 -24 -10 -3 4 2 14
13 21 25 19 33 10 11 -11z m128 17 c-3 -5 -15 -15 -26 -20 -15 -9 -19 -7 -19
5 0 9 4 14 9 10 5 -3 12 -1 16 5 3 5 11 10 16 10 6 0 7 -4 4 -10z m2805 6 c0
-3 -4 -8 -10 -11 -5 -3 -10 -1 -10 4 0 6 5 11 10 11 6 0 10 -2 10 -4z m-4220
-58 c0 -4 -15 -8 -32 -8 -20 0 -28 3 -21 8 16 10 53 10 53 0z"/>
<path d="M4470 2448 c0 -6 -10 -8 -25 -4 -18 5 -33 -1 -60 -25 -20 -18 -34
-38 -31 -45 3 -8 1 -14 -4 -14 -6 0 -10 -9 -10 -19 0 -11 -5 -23 -11 -27 -6
-3 -9 -15 -6 -25 4 -14 0 -19 -15 -19 -14 0 -18 -5 -14 -15 3 -8 0 -15 -7 -15
-16 0 -69 -64 -57 -68 16 -6 12 -18 -16 -46 -28 -28 -26 -33 7 -15 29 15 177
167 184 188 3 10 14 26 25 36 11 10 20 24 20 31 0 7 9 15 19 19 12 3 21 17 23
33 l4 27 12 -27 c6 -16 16 -28 21 -28 14 0 30 25 23 37 -10 15 -82 34 -82 21z"/>
<path d="M3860 2165 c-7 -9 -10 -18 -7 -22 8 -7 37 15 37 28 0 14 -16 11 -30
-6z"/>
<path d="M2955 1980 c-3 -5 -1 -10 4 -10 6 0 11 5 11 10 0 6 -2 10 -4 10 -3 0
-8 -4 -11 -10z"/>
<path d="M2855 1950 c3 -5 8 -10 11 -10 2 0 4 5 4 10 0 6 -5 10 -11 10 -5 0
-7 -4 -4 -10z"/>
<path d="M4016 175 c-6 -16 17 -31 65 -45 37 -11 37 0 -1 25 -16 11 -30 23
-30 28 0 13 -28 7 -34 -8z"/>
<path d="M1288 133 c6 -2 18 -2 25 0 6 3 1 5 -13 5 -14 0 -19 -2 -12 -5z"/>
<path d="M3834 4108 c3 -13 6 -30 6 -37 0 -11 3 -12 10 -5 7 7 8 19 1 37 -13
33 -26 36 -17 5z"/>
<path d="M3687 4101 c-3 -13 3 -22 21 -30 32 -15 37 -9 17 23 -20 31 -31 33
-38 7z"/>
<path d="M4363 4020 c0 -47 2 -66 4 -42 2 23 2 61 0 85 -2 23 -4 4 -4 -43z"/>
<path d="M2962 4080 c9 -6 45 -13 80 -16 62 -6 62 -5 34 10 -31 18 -144 23
-114 6z"/>
<path d="M1105 4010 c-33 -20 -43 -30 -30 -30 24 0 85 36 85 50 0 13 4 14 -55
-20z"/>
<path d="M1203 3973 c-32 -4 -47 -23 -19 -23 7 0 19 -7 26 -15 17 -21 27 -19
36 8 4 12 12 25 18 29 11 8 -3 8 -61 1z"/>
<path d="M3921 3940 c-7 -11 -8 -146 -1 -164 6 -18 7 -18 11 5 4 25 -5 168
-10 159z"/>
<path d="M910 3920 c0 -5 4 -10 9 -10 6 0 13 5 16 10 3 6 -1 10 -9 10 -9 0
-16 -4 -16 -10z"/>
<path d="M927 3818 c3 -46 12 -94 19 -108 11 -22 12 -15 8 60 -6 101 -11 130
-23 130 -5 0 -7 -37 -4 -82z"/>
<path d="M4202 3846 c-8 -30 -11 -69 -7 -101 5 -34 3 -61 -5 -75 -6 -12 -14
-32 -16 -46 -2 -13 -14 -39 -25 -59 -13 -22 -22 -58 -25 -97 -3 -57 -3 -59 6
-21 5 23 26 74 47 115 35 67 38 81 41 168 2 52 2 111 0 130 l-3 35 -13 -49z"/>
<path d="M4062 3841 c-16 -10 -7 -54 14 -72 18 -15 20 -13 29 39 6 37 4 42
-12 42 -10 0 -24 -4 -31 -9z"/>
<path d="M1179 3803 c-6 -21 -17 -44 -23 -52 -23 -30 -269 -139 -328 -146 -56
-7 -72 -25 -22 -25 14 0 27 -6 30 -14 7 -18 23 -13 154 53 150 76 172 93 197
162 11 32 17 59 13 59 -5 0 -14 -17 -21 -37z"/>
<path d="M3575 3830 c45 -11 145 -11 145 0 0 6 -35 10 -87 9 -62 -1 -79 -4
-58 -9z"/>
<path d="M376 3805 c-3 -9 0 -15 9 -15 12 0 15 -15 15 -69 0 -86 13 -99 27
-26 7 41 6 62 -5 89 -15 37 -36 47 -46 21z"/>
<path d="M438 3795 c5 -29 10 -30 40 -9 31 22 27 34 -12 34 -30 0 -33 -2 -28
-25z"/>
<path d="M315 3780 c-14 -27 -14 -33 -1 -51 14 -21 15 -20 25 17 6 22 11 45
11 52 0 22 -19 12 -35 -18z"/>
<path d="M4317 3721 c-24 -47 -21 -63 4 -24 11 18 19 38 17 45 -3 7 -12 -3
-21 -21z"/>
<path d="M202 3690 c0 -14 2 -19 5 -12 2 6 2 18 0 25 -3 6 -5 1 -5 -13z"/>
<path d="M165 3670 c3 -5 8 -10 11 -10 2 0 4 5 4 10 0 6 -5 10 -11 10 -5 0 -7
-4 -4 -10z"/>
<path d="M267 3653 c-4 -3 -7 -20 -7 -37 1 -22 9 -37 28 -51 l27 -20 -19 29
c-12 19 -16 38 -12 57 5 27 -2 37 -17 22z"/>
<path d="M161 3611 c-8 -11 -18 -18 -21 -16 -16 10 -63 -57 -80 -116 -22 -73
-23 -79 -11 -79 4 0 14 27 21 61 7 33 18 66 25 72 6 7 28 27 49 45 21 18 36
37 34 43 -2 5 -10 1 -17 -10z"/>
<path d="M2740 3556 c0 -13 42 -78 47 -72 3 2 -7 22 -21 43 -14 20 -26 34 -26
29z"/>
<path d="M310 3513 c-36 -13 -81 -29 -100 -35 -19 -5 -48 -17 -65 -26 -16 -9
-34 -15 -39 -14 -14 4 -26 -19 -26 -50 0 -16 -3 -28 -8 -28 -10 0 -42 -147
-41 -190 1 -19 4 -46 8 -60 4 -15 -1 -52 -11 -90 -24 -83 -19 -126 5 -47 17
57 37 71 43 31 2 -10 -5 -42 -16 -70 -25 -69 -48 -209 -53 -328 -4 -90 -3 -98
10 -80 14 17 15 15 10 -26 -3 -25 -9 -55 -13 -65 -7 -18 -6 -18 9 -6 9 7 17
21 18 30 0 11 2 12 6 3 3 -7 -2 -23 -11 -37 -15 -23 -33 -105 -25 -115 2 -3 7
-4 11 -3 15 5 8 -31 -9 -50 -18 -19 -17 -20 9 -14 14 4 33 10 42 13 9 3 16 1
16 -5 0 -6 -6 -11 -13 -11 -15 0 -49 -74 -36 -78 5 -2 9 -8 9 -13 0 -6 -4 -8
-8 -5 -4 2 -14 1 -21 -4 -23 -14 23 -31 71 -26 24 3 90 6 148 6 106 2 103 8
-12 25 -27 3 -48 10 -48 16 0 5 6 9 13 9 7 0 17 10 22 22 24 52 76 48 56 -5
-6 -16 -7 -27 -1 -27 5 0 12 9 15 20 3 11 10 20 15 20 5 0 11 9 15 19 3 11 15
23 26 26 11 4 18 9 15 12 -3 3 -20 0 -37 -6 -22 -8 -36 -8 -43 -1 -5 5 -20 10
-33 10 -17 0 -21 4 -16 18 6 14 4 15 -8 5 -8 -6 -30 -11 -49 -10 -29 2 -34 5
-32 22 5 26 6 27 36 29 14 0 26 4 26 7 0 4 10 9 23 12 12 2 31 8 42 12 20 8
20 8 1 -13 -11 -12 -26 -22 -35 -22 -9 0 -25 -8 -36 -17 -19 -15 -19 -15 10
-8 17 4 44 9 60 12 17 3 33 10 37 16 5 8 8 6 8 -5 0 -22 20 -27 108 -27 73 -1
142 18 142 38 0 5 -12 11 -27 13 -16 3 2 4 40 4 37 0 67 -2 67 -5 0 -3 13 -7
29 -8 36 -3 173 -72 165 -84 -3 -5 2 -6 11 -2 10 3 20 2 24 -3 18 -25 63 -38
141 -41 110 -4 129 4 65 27 -111 39 -219 91 -260 124 -24 20 -48 36 -53 36 -5
0 -19 9 -32 20 -13 11 -31 20 -41 20 -10 0 -20 4 -24 10 -3 5 -16 6 -28 2 -34
-12 -71 -7 -105 14 -34 20 -41 34 -17 34 9 0 18 7 21 15 9 22 24 18 24 -6 0
-17 4 -19 23 -13 30 9 37 22 30 57 -5 26 -4 29 16 22 28 -8 61 3 61 21 0 17
-17 19 -23 2 -3 -7 -4 -3 -4 10 2 33 24 27 42 -12 12 -26 21 -33 36 -29 10 3
22 16 25 29 3 13 11 22 16 21 19 -4 19 20 1 41 -10 12 -27 23 -38 23 -44 4
-95 -2 -95 -10 0 -5 9 -7 20 -4 11 3 20 0 20 -6 0 -16 -27 -14 -54 4 -21 14
-25 14 -39 1 -13 -14 -16 -14 -27 -1 -18 22 -33 18 -27 -6 4 -15 2 -19 -9 -15
-20 8 -17 -14 4 -30 16 -12 15 -14 -7 -38 -32 -34 -41 -33 -41 4 0 22 -4 28
-15 24 -17 -7 -20 -40 -5 -49 6 -4 7 -11 4 -17 -4 -6 -15 5 -26 27 -14 27 -17
40 -9 48 16 16 13 37 -4 31 -19 -8 -19 0 0 37 9 16 13 34 10 39 -4 6 1 13 9
16 11 4 14 14 10 29 -3 13 -1 26 5 29 6 4 11 0 11 -8 0 -18 35 -22 45 -6 4 6
1 17 -5 25 -17 21 3 20 35 -1 29 -19 34 -6 7 17 -17 15 -49 95 -41 103 7 7 59
16 132 23 37 3 70 9 72 13 2 4 28 3 57 -1 28 -5 53 -7 54 -6 0 1 4 13 7 27 6
24 4 26 -36 25 -23 0 -52 -6 -65 -13 -12 -7 -27 -10 -32 -7 -6 3 -10 -1 -10
-10 0 -11 -6 -14 -23 -10 -12 3 -47 2 -78 -3 -69 -11 -77 -8 -72 26 3 22 1 20
-16 -13 -11 -22 -20 -47 -21 -55 0 -9 -13 -42 -30 -75 -16 -33 -30 -67 -30
-75 0 -11 -2 -12 -8 -3 -6 9 -12 7 -25 -7 -21 -25 -22 -34 -2 -26 12 4 15 -2
14 -27 -1 -23 -3 -26 -6 -9 -3 12 -12 22 -22 22 -22 0 -41 -19 -35 -35 4 -9
-3 -11 -20 -8 -17 4 -26 1 -26 -7 0 -7 7 -10 15 -7 25 10 28 -13 5 -35 -12
-11 -22 -18 -23 -17 -1 2 -7 13 -13 25 -15 26 -7 71 13 78 11 4 13 2 9 -9 -3
-9 0 -15 8 -15 9 0 12 7 9 19 -3 12 13 46 43 93 27 40 57 96 69 123 38 91 35
89 137 109 109 21 190 53 169 65 -8 5 -23 3 -37 -4 -14 -7 -46 -13 -73 -13
-27 -1 -61 -6 -75 -12 -40 -15 -115 -12 -176 6 -43 13 -69 31 -127 87 -69 66
-92 101 -79 115 4 3 12 0 18 -6 18 -18 25 -15 31 14 3 16 0 28 -10 31 -21 8
-52 -25 -59 -65 -7 -34 -8 -35 -16 -13 -19 52 12 144 53 161 36 15 39 33 3 20
-32 -13 -44 -13 -44 0 0 12 63 41 164 75 74 26 80 29 75 43 -2 4 -33 -2 -69
-15z m-190 -132 c-4 -9 -11 -41 -15 -72 -9 -73 8 -109 85 -183 55 -53 165
-116 201 -116 23 0 30 -24 14 -47 -11 -14 -26 -18 -82 -17 -121 1 -166 10
-190 41 -45 56 -84 167 -52 147 8 -5 8 -1 0 14 -6 11 -11 34 -11 50 0 36 28
201 37 215 9 15 22 -15 13 -32z m4 -467 c9 -8 16 -20 16 -25 0 -15 -20 -51
-40 -74 -10 -11 -30 -42 -44 -70 -15 -30 -25 -42 -25 -30 0 19 21 112 32 145
3 8 8 27 11 43 7 30 27 35 50 11z m252 -27 c3 -3 -2 -19 -11 -36 -13 -27 -19
-30 -35 -21 -24 13 -65 -12 -76 -44 -6 -19 -7 -19 -25 3 -17 21 -47 21 -34 0
4 -5 3 -19 0 -30 -5 -15 -13 -19 -27 -15 -16 4 -18 2 -9 -7 6 -6 11 -18 10
-26 0 -11 -2 -12 -6 -3 -4 10 -8 10 -19 1 -10 -8 -14 -8 -14 0 0 6 -8 11 -17
11 -17 1 -17 1 0 14 9 7 17 17 17 21 0 11 99 133 113 138 15 7 126 1 133 -6z
m-66 -127 c-6 -12 -14 -19 -17 -16 -4 3 0 18 8 32 7 14 15 21 17 15 2 -5 -2
-20 -8 -31z m-70 -24 c0 -3 -4 -8 -10 -11 -5 -3 -10 -1 -10 4 0 6 5 11 10 11
6 0 10 -2 10 -4z m-92 -51 c12 4 13 3 2 -10 -15 -18 -35 -20 -24 -3 5 7 2 9
-7 6 -10 -4 -15 1 -16 13 -2 17 0 18 14 4 9 -9 22 -14 31 -10z m109 3 c-3 -8
-6 -5 -6 6 -1 11 2 17 5 13 3 -3 4 -12 1 -19z m-26 -74 c-15 -19 -21 -22 -21
-10 0 9 4 16 9 16 5 0 12 10 16 23 4 13 8 17 11 10 3 -7 -4 -25 -15 -39z
m-114 -16 c-3 -8 -6 -5 -6 6 -1 11 2 17 5 13 3 -3 4 -12 1 -19z m463 12 c0 -5
-5 -10 -11 -10 -5 0 -7 5 -4 10 3 6 8 10 11 10 2 0 4 -4 4 -10z m-286 -36 c9
-25 7 -41 -4 -24 -8 13 -10 13 -10 -1 0 -9 7 -20 16 -23 9 -4 15 -9 12 -11
-11 -12 -38 9 -39 29 0 14 -2 16 -6 6 -3 -8 -12 -19 -19 -23 -8 -4 -14 -20
-15 -35 l0 -27 -12 24 c-9 19 -9 25 1 29 6 2 12 10 12 18 0 9 5 12 10 9 6 -3
10 -1 10 5 0 12 21 39 31 40 4 0 10 -7 13 -16z m-74 0 c0 -12 -34 -64 -42 -64
-11 0 -10 2 8 38 13 28 34 43 34 26z m-173 -26 c-3 -8 -6 -5 -6 6 -1 11 2 17
5 13 3 -3 4 -12 1 -19z m358 -19 c-3 -17 -7 -34 -8 -38 -1 -4 11 -19 27 -34
21 -19 24 -27 13 -27 -9 0 -20 7 -25 16 -8 15 -12 15 -41 -1 -18 -9 -40 -15
-48 -13 -15 3 -15 4 -1 19 9 8 19 29 22 46 8 34 36 67 36 41 0 -7 -7 -24 -16
-36 -19 -27 -12 -41 11 -22 8 7 15 28 15 46 0 19 5 34 10 34 6 0 8 -13 5 -31z
m-80 -29 c-9 -41 -17 -33 -9 9 4 17 9 30 11 27 3 -2 2 -19 -2 -36z m255 18 c0
-16 -3 -19 -11 -11 -6 6 -8 16 -5 22 11 17 16 13 16 -11z m-410 -48 c0 -5 -4
-10 -10 -10 -5 0 -10 5 -10 10 0 6 5 10 10 10 6 0 10 -4 10 -10z m22 -22 c-7
-7 -12 -8 -12 -2 0 14 12 26 19 19 2 -3 -1 -11 -7 -17z m-55 -34 c-3 -3 -12
-4 -19 -1 -8 3 -5 6 6 6 11 1 17 -2 13 -5z m318 -13 c-8 -13 -35 -15 -35 -2 0
5 8 11 18 13 21 5 26 2 17 -11z m-225 -41 c0 -5 -5 -10 -11 -10 -5 0 -7 5 -4
10 3 6 8 10 11 10 2 0 4 -4 4 -10z m170 -11 c0 -5 -4 -9 -10 -9 -5 0 -10 7
-10 16 0 8 5 12 10 9 6 -3 10 -10 10 -16z m-60 5 c0 -8 -19 -13 -24 -6 -3 5 1
9 9 9 8 0 15 -2 15 -3z m-191 -137 c13 -16 -7 -67 -26 -67 -13 0 -33 59 -26
73 7 12 40 8 52 -6z"/>
<path d="M210 2830 c0 -5 5 -10 10 -10 6 0 10 5 10 10 0 6 -4 10 -10 10 -5 0
-10 -4 -10 -10z"/>
<path d="M171 2764 c0 -11 3 -14 6 -6 3 7 2 16 -1 19 -3 4 -6 -2 -5 -13z"/>
<path d="M3802 3495 c0 -16 2 -22 5 -12 2 9 2 23 0 30 -3 6 -5 -1 -5 -18z"/>
<path d="M1012 3459 c-24 -11 -68 -25 -96 -31 -46 -10 -62 -9 -123 11 -73 24
-161 30 -228 17 -35 -7 -37 -9 -18 -17 12 -4 64 -7 115 -7 82 1 100 -2 153
-27 33 -15 62 -31 65 -35 7 -10 85 16 124 42 32 21 73 68 59 68 -4 -1 -28 -10
-51 -21z"/>
<path d="M385 3430 c-4 -7 3 -8 22 -4 38 9 42 14 10 14 -14 0 -29 -5 -32 -10z"/>
<path d="M4340 3430 c8 -5 29 -10 45 -10 17 0 37 5 45 10 11 7 -3 10 -45 10
-42 0 -56 -3 -45 -10z"/>
<path d="M228 3423 c7 -3 16 -2 19 1 4 3 -2 6 -13 5 -11 0 -14 -3 -6 -6z"/>
<path d="M4355 3400 c-3 -5 1 -10 9 -10 9 0 16 5 16 10 0 6 -4 10 -9 10 -6 0
-13 -4 -16 -10z"/>
<path d="M353 3371 c-20 -17 -21 -31 -2 -31 11 0 39 30 39 41 0 14 -13 10 -37
-10z"/>
<path d="M446 3320 c-22 -11 -47 -27 -57 -36 -13 -11 -19 -12 -24 -3 -5 7 2
20 16 31 l24 20 -25 -7 c-14 -4 -49 -9 -78 -12 -39 -4 -55 -11 -63 -26 -10
-17 -9 -19 10 -14 11 3 24 1 27 -4 10 -17 42 -9 49 14 7 19 9 18 12 -13 3 -19
9 -39 14 -44 12 -13 12 -66 -1 -66 -5 0 -13 18 -16 41 -4 22 -10 37 -13 32 -3
-5 -14 -12 -23 -16 -10 -3 -18 -12 -18 -19 0 -23 51 -70 104 -94 44 -21 65
-24 146 -23 52 1 100 5 105 9 6 4 27 10 47 14 21 4 40 10 42 15 3 4 -17 2 -45
-5 -27 -7 -91 -13 -142 -12 -73 1 -98 5 -119 20 -39 27 -67 138 -34 138 7 0
26 12 42 26 24 23 37 27 84 26 53 -2 54 -1 30 13 -33 19 -47 18 -94 -5z m-126
-130 c0 -5 -2 -10 -4 -10 -3 0 -8 5 -11 10 -3 6 -1 10 4 10 6 0 11 -4 11 -10z"/>
<path d="M3740 3336 c0 -3 17 -14 38 -25 20 -11 52 -34 71 -51 18 -16 36 -30
38 -30 2 0 -8 22 -23 50 -20 36 -32 49 -48 48 -12 0 -33 3 -48 7 -16 4 -28 5
-28 1z"/>
<path d="M4165 3330 c3 -5 8 -10 11 -10 2 0 4 5 4 10 0 6 -5 10 -11 10 -5 0
-7 -4 -4 -10z"/>
<path d="M925 3285 c-38 -19 -76 -32 -84 -30 -24 9 -90 -17 -115 -46 -16 -18
-31 -26 -44 -22 -15 4 -19 -1 -20 -25 0 -26 2 -29 21 -24 12 2 29 10 37 17 8
7 53 31 100 54 46 22 80 41 75 41 -6 1 4 7 22 15 17 7 42 11 55 9 21 -4 21 -4
3 5 -17 7 -15 10 18 16 20 4 37 11 37 16 0 17 -35 8 -105 -26z m-95 -45 c-8
-5 -19 -10 -25 -10 -5 0 -3 5 5 10 8 5 20 10 25 10 6 0 3 -5 -5 -10z"/>
<path d="M495 3290 c-3 -5 -1 -10 4 -10 6 0 11 5 11 10 0 6 -2 10 -4 10 -3 0
-8 -4 -11 -10z"/>
<path d="M1095 3287 c29 -9 41 -19 45 -37 5 -22 7 -23 13 -7 4 10 7 21 7 23 0
8 -68 34 -87 33 -10 0 0 -6 22 -12z"/>
<path d="M4175 3291 c-3 -5 -1 -12 5 -16 5 -3 10 1 10 9 0 18 -6 21 -15 7z"/>
<path d="M4326 3278 c3 -13 11 -25 16 -26 4 -2 15 -17 24 -34 11 -22 13 -37 5
-61 -14 -49 -21 -137 -11 -137 6 0 10 12 10 27 0 15 5 53 12 86 12 57 11 60
-17 113 -30 55 -52 73 -39 32z"/>
<path d="M535 3260 c-6 -9 14 -14 43 -11 6 1 12 -3 12 -9 0 -6 -5 -8 -11 -4
-7 4 -10 1 -7 -7 7 -20 48 -24 48 -5 0 9 6 16 13 16 19 1 -53 30 -74 30 -10 0
-21 -4 -24 -10z"/>
<path d="M4018 3223 c-16 -43 -11 -56 11 -29 7 8 11 27 9 43 -3 27 -4 26 -20
-14z"/>
<path d="M4197 3253 c-3 -5 -3 -21 -2 -37 2 -16 -2 -35 -8 -43 -7 -8 -19 -22
-27 -32 -32 -37 -41 -61 -31 -79 9 -15 10 -14 11 5 0 20 63 93 81 93 10 0 8
59 -3 66 -4 3 -6 9 -3 14 3 5 1 11 -4 14 -5 4 -12 3 -14 -1z"/>
<path d="M3510 3236 c0 -3 17 -24 37 -47 37 -41 106 -90 181 -128 30 -15 45
-33 67 -78 15 -32 30 -74 32 -95 5 -32 9 -36 39 -40 19 -2 34 0 34 4 0 4 -4 8
-8 8 -11 0 -32 61 -32 93 0 15 -5 26 -10 25 -6 -2 -41 32 -78 76 -51 60 -79
83 -117 99 -27 11 -71 36 -97 55 -27 18 -48 31 -48 28z"/>
<path d="M1161 3214 c0 -11 3 -14 6 -6 3 7 2 16 -1 19 -3 4 -6 -2 -5 -13z"/>
<path d="M440 3210 c0 -13 30 -13 50 0 11 7 7 10 -17 10 -18 0 -33 -4 -33 -10z"/>
<path d="M918 3203 c7 -3 16 -2 19 1 4 3 -2 6 -13 5 -11 0 -14 -3 -6 -6z"/>
<path d="M532 3161 c-10 -6 -9 -10 7 -14 14 -3 21 0 21 9 0 16 -9 18 -28 5z"/>
<path d="M4501 3154 c0 -11 3 -14 6 -6 3 7 2 16 -1 19 -3 4 -6 -2 -5 -13z"/>
<path d="M950 3134 c0 -10 -8 -15 -22 -13 -15 2 -36 -10 -59 -32 -19 -19 -55
-42 -80 -52 l-44 -17 38 4 c43 6 138 48 157 71 7 8 20 15 30 15 18 0 34 23 23
34 -13 12 -43 5 -43 -10z"/>
<path d="M4070 3126 c0 -4 5 -16 10 -27 9 -16 7 -19 -8 -19 -10 0 -23 5 -29
11 -13 13 -115 1 -107 -13 4 -6 20 -7 36 -4 16 3 46 0 67 -8 62 -21 94 10 51
49 -11 10 -20 15 -20 11z"/>
<path d="M1073 3105 c-15 -16 -18 -49 -4 -41 5 4 12 0 14 -6 3 -7 6 4 6 25 1
42 1 42 -16 22z"/>
<path d="M4327 3113 c-4 -3 -7 -13 -7 -22 1 -13 3 -13 11 2 11 19 8 33 -4 20z"/>
<path d="M4497 3106 c-4 -10 -5 -21 -2 -24 9 -9 17 6 13 25 -3 17 -4 17 -11
-1z"/>
<path d="M4592 3090 c0 -19 2 -27 5 -17 2 9 2 25 0 35 -3 9 -5 1 -5 -18z"/>
<path d="M4163 3040 c-12 -36 -38 -104 -57 -152 -62 -156 -72 -250 -28 -256
21 -3 22 0 22 56 0 78 11 152 22 152 5 0 6 -45 2 -105 -5 -76 -4 -105 5 -105
11 0 13 26 16 175 1 33 12 98 24 145 12 47 20 101 19 120 -3 33 -4 32 -25 -30z"/>
<path d="M4484 3045 c-5 -20 -9 -23 -20 -14 -11 9 -15 7 -21 -7 -3 -10 -2 -19
3 -21 38 -13 72 -45 78 -74 3 -18 9 -30 11 -27 3 3 -1 25 -9 49 -9 24 -16 58
-16 76 0 40 -17 52 -26 18z"/>
<path d="M4396 3044 c-7 -19 2 -37 15 -29 12 8 12 45 0 45 -5 0 -12 -7 -15
-16z"/>
<path d="M1066 3029 c-2 -8 -10 -36 -17 -64 -7 -27 -23 -61 -36 -75 -22 -24
-29 -40 -17 -40 6 0 21 15 43 43 13 17 43 138 35 146 -2 2 -5 -2 -8 -10z"/>
<path d="M976 2985 c4 -8 15 -15 26 -15 17 0 18 2 4 15 -8 8 -19 15 -25 15 -6
0 -8 -7 -5 -15z"/>
<path d="M935 2980 c-3 -5 -1 -10 4 -10 6 0 11 5 11 10 0 6 -2 10 -4 10 -3 0
-8 -4 -11 -10z"/>
<path d="M1182 2964 c-1 -17 -4 -47 -7 -65 -5 -31 -5 -32 5 -9 6 13 9 42 7 65
-3 32 -4 34 -5 9z"/>
<path d="M3890 2905 c0 -8 5 -15 10 -15 6 0 10 7 10 15 0 8 -4 15 -10 15 -5 0
-10 -7 -10 -15z"/>
<path d="M844 2885 c59 -30 55 -29 49 -6 -3 11 -17 21 -35 25 -58 12 -63 6
-14 -19z"/>
<path d="M537 2883 c13 -37 53 -69 53 -43 0 6 -6 10 -14 10 -8 0 -17 11 -20
25 -4 14 -11 25 -16 25 -5 0 -7 -8 -3 -17z"/>
<path d="M1096 2869 c-15 -16 -24 -29 -22 -29 3 0 -2 -16 -10 -35 -7 -19 -14
-49 -13 -67 0 -29 2 -26 15 20 15 57 43 100 76 118 l20 11 -20 5 c-14 4 -28
-3 -46 -23z"/>
<path d="M800 2864 l-25 -14 33 0 c22 0 32 5 32 15 0 18 -7 18 -40 -1z"/>
<path d="M1022 2831 c-12 -10 -22 -23 -22 -30 0 -6 -4 -11 -10 -11 -5 0 -10
-7 -10 -15 0 -13 6 -17 26 -14 4 0 11 -5 15 -13 7 -10 9 -8 9 6 0 13 -5 16
-16 12 -13 -5 -14 -3 -6 6 6 7 11 18 11 23 0 6 8 18 17 28 21 26 12 31 -14 8z"/>
<path d="M677 2826 c-4 -10 2 -16 16 -18 14 -2 21 -10 21 -21 -2 -15 4 -17 50
-10 28 5 70 8 94 8 23 0 42 3 42 8 0 19 20 4 21 -15 l0 -23 11 23 c6 12 20 22
30 22 11 0 17 4 14 8 -2 4 -34 9 -71 10 -36 2 -89 7 -117 12 -71 14 -105 12
-111 -4z"/>
<path d="M1206 2829 c-4 -9 -2 -54 4 -100 5 -46 10 -87 10 -91 0 -5 4 -8 9 -8
5 0 7 8 5 18 -3 9 -8 58 -13 107 -4 51 -11 83 -15 74z"/>
<path d="M620 2810 c-15 -10 -15 -10 25 -10 3 0 5 3 6 7 1 12 -15 13 -31 3z"/>
<path d="M3649 2796 c-54 -19 -96 -52 -103 -82 -4 -15 -5 -28 -3 -31 3 -2 7 8
11 22 5 20 11 24 29 20 17 -4 26 1 39 25 11 20 28 32 48 36 16 4 30 10 30 15
0 12 -7 11 -51 -5z"/>
<path d="M3732 2780 c0 -14 2 -19 5 -12 2 6 2 18 0 25 -3 6 -5 1 -5 -13z"/>
<path d="M676 2783 c-11 -11 -6 -23 9 -23 8 0 15 4 15 9 0 13 -16 22 -24 14z"/>
<path d="M953 2768 c0 -7 -2 -31 -6 -53 l-6 -40 14 45 c8 24 11 48 7 52 -5 5
-9 3 -9 -4z"/>
<path d="M555 2740 c-18 -7 -18 -8 -3 -15 13 -5 16 -14 12 -31 -4 -14 -2 -24
5 -24 6 0 8 6 5 14 -3 7 2 16 10 19 19 8 21 33 4 40 -7 2 -22 1 -33 -3z"/>
<path d="M496 2715 c-19 -29 -20 -45 -3 -45 23 0 35 15 34 43 -2 33 -10 34
-31 2z"/>
<path d="M988 2715 c2 -14 6 -25 8 -25 2 0 4 11 4 25 0 14 -4 25 -9 25 -4 0
-6 -11 -3 -25z"/>
<path d="M3741 2707 c0 -10 -5 -15 -11 -12 -11 7 -23 -35 -18 -62 2 -13 8 -8
21 20 10 21 16 45 14 55 -4 15 -5 15 -6 -1z"/>
<path d="M1056 2667 c-5 -15 -6 -31 -2 -34 11 -11 18 5 14 34 l-4 28 -8 -28z"/>
<path d="M804 2655 c19 -41 31 -166 18 -191 -17 -32 36 -124 72 -124 19 0 21
31 4 48 -8 8 -11 39 -10 87 3 73 -4 99 -34 133 -8 9 -26 31 -40 47 l-25 30 15
-30z"/>
<path d="M941 2663 c0 -6 -4 -20 -7 -30 -5 -14 -4 -15 5 -7 7 7 11 20 8 30 -3
11 -5 14 -6 7z"/>
<path d="M4175 2650 c4 -6 11 -8 16 -5 14 9 11 15 -7 15 -8 0 -12 -5 -9 -10z"/>
<path d="M4217 2633 c-4 -3 -7 -15 -7 -25 0 -12 7 -18 24 -18 33 0 39 13 15
33 -22 19 -23 20 -32 10z"/>
<path d="M920 2593 c0 -10 -3 -29 -7 -43 -3 -14 -3 -22 1 -18 12 11 25 78 15
78 -5 0 -9 -8 -9 -17z"/>
<path d="M1073 2585 c-10 -23 -1 -46 11 -26 4 5 23 4 48 -3 28 -9 56 -10 87
-4 25 4 51 6 58 3 7 -2 13 1 13 6 0 7 9 9 21 6 13 -3 19 -1 16 6 -3 8 -37 11
-112 10 -86 -2 -110 0 -119 12 -9 13 -13 11 -23 -10z"/>
<path d="M679 2558 c-6 -23 -8 -78 -2 -79 57 -10 66 -2 33 31 -11 11 -17 26
-14 35 4 8 1 15 -5 15 -6 0 -11 -1 -12 -2z"/>
<path d="M983 2553 c-12 -2 -27 -11 -35 -20 -12 -15 -11 -15 10 -4 12 7 32 9
42 6 14 -4 20 -2 20 9 0 9 -3 15 -7 15 -5 -1 -18 -4 -30 -6z"/>
<path d="M965 2470 c-3 -4 5 -11 18 -14 22 -6 22 -6 2 -24 -13 -11 -19 -27
-17 -44 4 -33 25 -42 40 -17 10 16 9 19 -7 19 -18 0 -19 2 -5 28 7 15 14 32
14 38 0 14 -38 26 -45 14z"/>
<path d="M3965 2444 c-43 -22 -43 -24 1 -23 21 1 31 3 21 6 -18 5 -18 5 0 19
24 18 15 17 -22 -2z"/>
<path d="M945 2440 c-3 -5 -1 -10 4 -10 6 0 11 5 11 10 0 6 -2 10 -4 10 -3 0
-8 -4 -11 -10z"/>
<path d="M3890 2410 c0 -5 5 -10 11 -10 5 0 7 5 4 10 -3 6 -8 10 -11 10 -2 0
-4 -4 -4 -10z"/>
<path d="M3860 2360 c0 -5 5 -10 11 -10 5 0 7 5 4 10 -3 6 -8 10 -11 10 -2 0
-4 -4 -4 -10z"/>
<path d="M1039 2358 c-6 -21 -8 -59 -2 -55 4 3 28 10 53 17 41 11 43 13 25 26
-15 12 -73 20 -76 12z"/>
<path d="M1010 2146 c0 -2 7 -7 16 -10 8 -3 12 -2 9 4 -6 10 -25 14 -25 6z"/>
<path d="M1050 2130 c0 -5 5 -10 11 -10 5 0 7 5 4 10 -3 6 -8 10 -11 10 -2 0
-4 -4 -4 -10z"/>
</g>
</svg>
